HIERARCHY
ROOT hip
{
	OFFSET 0.000000 0.000000 0.000000 
	CHANNELS 6 Xposition Yposition Zposition Xrotation Zrotation Yrotation
	JOINT abdomen
	{
		OFFSET 0.000000 3.402643 0.000000 
		CHANNELS 3 Xrotation Zrotation Yrotation
		JOINT chest
		{
			OFFSET 0.000000 8.438565 -0.680529 
			CHANNELS 3 Xrotation Zrotation Yrotation
			JOINT neck
			{
				OFFSET 0.000000 10.207942 -0.272212 
				CHANNELS 3 Xrotation Zrotation Yrotation
				JOINT head
				{
					OFFSET 0.000000 3.130431 0.000000 
					CHANNELS 3 Xrotation Zrotation Yrotation
					End Site
					{
						OFFSET 0.000000 3.130435 0.000000 
					}
				}
			}
			JOINT lCollar
			{
				OFFSET 3.470700 6.669187 -0.816635 
				CHANNELS 3 Yrotation Zrotation Xrotation
				JOINT lShldr
				{
					OFFSET 3.198488 0.000000 0.000000 
					CHANNELS 3 Zrotation Yrotation Xrotation
					JOINT lForeArm
					{
						OFFSET 10.139888 0.000000 0.000000 
						CHANNELS 3 Yrotation Zrotation Xrotation
						JOINT lHand
						{
							OFFSET 8.370511 0.000000 0.000000 
							CHANNELS 3 Zrotation Yrotation Xrotation
							End Site
							{
								OFFSET 4.083176 0.000000 0.000000 
							}
						}
					}
				}
			}
			JOINT rCollar
			{
				OFFSET -3.470700 6.669187 -0.816635 
				CHANNELS 3 Yrotation Zrotation Xrotation
				JOINT rShldr
				{
					OFFSET -3.198488 0.000000 0.000000 
					CHANNELS 3 Zrotation Yrotation Xrotation
					JOINT rForeArm
					{
						OFFSET -10.139888 0.000000 0.000000 
						CHANNELS 3 Yrotation Zrotation Xrotation
						JOINT rHand
						{
							OFFSET -8.370511 0.000000 0.000000 
							CHANNELS 3 Zrotation Yrotation Xrotation
							End Site
							{
								OFFSET -4.083176 0.000000 0.000000 
							}
						}
					}
				}
			}
		}
	}
	JOINT lThigh
	{
		OFFSET 5.308129 -1.633274 1.361059 
		CHANNELS 3 Xrotation Zrotation Yrotation
		JOINT lShin
		{
			OFFSET -2.041588 -20.007561 0.000000 
			CHANNELS 3 Xrotation Zrotation Yrotation
			JOINT lFoot
			{
				OFFSET 0.000000 -19.190928 -1.224953 
				CHANNELS 3 Xrotation Yrotation Zrotation
				End Site
				{
					OFFSET 0.000000 -2.449906 4.627600 
				}
			}
		}
	}
	JOINT rThigh
	{
		OFFSET -5.308129 -1.633274 1.361059 
		CHANNELS 3 Xrotation Zrotation Yrotation
		JOINT rShin
		{
			OFFSET 2.041588 -20.007561 0.000000 
			CHANNELS 3 Xrotation Zrotation Yrotation
			JOINT rFoot
			{
				OFFSET 0.000000 -19.190928 -1.224953 
				CHANNELS 3 Xrotation Yrotation Zrotation
				End Site
				{
					OFFSET 0.000000 -2.449906 4.627600 
				}
			}
		}
	}
}
MOTION
Frames: 18
Frame Time: 0.033333
1.484494 50.145615 -8.864134 21.064451 8.427735 -12.197266 0.000000 0.000000 0.000000 9.443359 -7.207031 4.599609 13.828125 0.283203 -0.039014 -32.958984 1.044922 2.988281 -37.148438 29.999998 25.000000 -98.994141 -17.441406 -3.977537 -80.058594 -21.123051 110.312500 -62.529297 -31.933594 -3.130164 15.429688 -30.000000 25.000000 96.201172 39.062496 80.689743 17.041016 -46.367188 29.645737 32.343750 -0.546875 -80.498024 -32.904499 9.986375 17.128859 47.190090 2.332927 -1.523941 -1.143457 -1.677707 -34.078598 -38.064884 -15.585584 -2.023948 37.621849 1.591543 2.743671 10.273791 7.864869 25.174486 
2.327776 51.030487 -10.207804 27.216797 9.228516 -15.340233 0.000000 0.000000 0.000000 8.193358 -6.337891 4.824219 28.574219 1.289063 -0.048608 -24.853516 0.380859 -1.181641 -41.367188 30.000000 25.000000 -87.128906 -20.351561 -8.763162 -92.099609 -25.937498 120.019524 -69.404297 -59.785156 18.789063 21.074217 -30.000000 25.000000 99.287109 46.484375 80.436768 29.423826 -49.726559 49.003910 29.716797 2.080078 -80.194962 -40.601650 11.696719 16.164911 50.001488 2.544674 -1.614508 3.361899 -3.520829 -36.212990 -46.312473 -14.051126 -1.069712 36.408802 2.909521 2.857271 16.011673 9.288177 24.427122 
3.092524 51.133713 -10.728192 27.392580 9.111328 -17.176189 0.000000 0.000000 0.000000 9.785157 -5.781250 4.891594 47.441406 2.490234 -0.107422 -15.507813 0.263672 -3.876951 -43.115234 30.000000 25.000000 -71.201172 -23.144531 -14.925712 -100.390625 -31.591797 128.867188 -22.558592 -77.460938 -28.740002 24.287109 -30.000000 25.000000 94.501953 51.562500 77.597656 40.722656 -52.753910 68.230431 27.509766 7.675781 -79.814453 -40.307011 11.080761 16.032635 52.758930 2.458795 -1.746712 3.095491 -1.177896 -38.578308 -48.331200 -14.108951 -0.981830 39.791786 2.900152 3.236096 17.321156 8.623400 25.019964 
3.590417 50.595482 -10.787274 24.541016 7.685547 -16.103516 0.000000 0.000000 0.000000 13.095703 -4.511719 5.008997 61.699215 4.912109 -0.048828 -9.355469 0.283203 -4.345703 -44.023438 30.000000 25.000000 -57.597652 -27.587891 -19.770145 -85.605469 -30.810547 90.346802 -56.513672 -37.626953 -6.920023 25.097656 -30.000000 25.000000 85.000000 51.015625 73.740234 45.488281 -59.628910 77.294922 25.429686 13.935547 -79.287109 -37.055119 8.639754 15.923604 53.558784 4.108670 -1.422175 -1.068625 -0.189789 -37.324810 -46.244392 -15.828421 -1.641482 44.479973 1.523252 3.378671 15.689319 9.314259 27.027805 
3.874243 49.873734 -10.797158 23.222654 6.191407 -11.132813 0.000000 0.000000 0.000000 14.482422 -2.285156 5.419533 69.033203 8.750000 0.166016 -7.119140 1.689453 -1.708697 -45.000000 30.000000 24.995117 -50.468750 -35.527340 -22.447081 -81.835938 -26.689455 97.451172 -68.486328 -30.263674 5.122032 24.550779 -23.378908 24.999998 73.378906 43.437500 70.661011 37.822269 -70.732422 64.520935 23.896484 14.775392 -79.521484 -37.000393 5.556035 15.057801 53.548798 7.047807 -0.766585 -2.246206 -2.885426 -35.029938 -44.437775 -19.450502 -2.957004 47.879776 0.576129 3.521361 13.472427 10.837582 30.799696 
4.156286 49.248928 -10.727115 22.812500 5.478516 -2.938521 0.000000 0.000000 0.000000 14.160155 0.312500 6.025391 70.908203 11.865233 0.371094 -7.744140 3.623047 3.067024 -45.000000 30.000000 24.995117 -50.039063 -48.154297 -23.913523 -73.154297 -16.113279 108.066406 -76.914063 -18.515625 13.720702 22.246094 -13.388672 25.000000 62.929688 32.080082 69.116516 4.423828 -74.501945 14.941051 18.974611 10.078125 -80.506104 -37.164566 1.190781 13.773907 52.136410 8.279060 -0.443488 -2.084317 -6.903421 -30.879179 -41.920460 -25.739870 -5.326549 50.118328 1.210985 3.878605 11.681518 10.850146 36.019932 
4.605210 49.003639 -10.504169 20.751953 6.123047 5.596745 0.000000 0.000000 0.000000 15.195313 2.968750 6.572771 68.662109 11.025392 0.332032 -9.423828 4.023438 7.461622 -45.000000 30.000000 24.995117 -65.742188 -64.824219 -19.716797 -61.113281 -1.923828 107.822258 -49.355469 -7.441406 -45.947262 19.453125 -7.841797 25.000000 56.582031 24.843750 68.216995 -9.697266 -64.990234 -15.948181 10.810547 9.306642 -81.279297 -31.179123 -4.521497 13.296836 45.901119 8.123374 -0.189695 -3.673330 -11.968133 -26.499630 -36.371731 -32.132797 -8.228400 51.334824 2.118975 4.189887 10.930676 6.641895 37.228470 
5.097623 49.422108 -10.421789 19.443359 7.539063 11.593079 0.000000 0.000000 0.000000 17.031250 5.566406 7.099609 63.281250 6.142578 0.020576 -12.304687 3.330078 10.820878 -45.000000 30.000000 24.995117 -114.921867 -69.160156 7.656889 -57.402344 1.982422 84.101563 -20.126953 -15.341797 -54.863281 19.248047 -7.734375 25.000000 53.339844 23.164064 67.246094 -9.296876 -53.261723 -22.636719 11.562499 9.707031 -80.917969 -22.771288 -9.393897 13.197582 35.535816 7.894254 0.336319 -3.662207 -17.913544 -23.801167 -32.967182 -34.235958 -9.381539 51.456123 0.625038 3.852601 12.257800 -1.488522 34.077526 
5.344460 50.427563 -10.720506 22.099607 7.783204 15.458984 0.000000 0.000000 0.000000 16.884768 7.333984 7.530543 54.960938 1.337891 -0.253906 -16.210938 4.443359 13.946068 -45.000000 30.000000 24.995117 -136.796875 -59.560547 16.407598 -57.734375 -12.480469 31.681799 -12.587891 -18.066406 -59.052738 21.533203 -9.609375 25.000000 49.687504 24.257813 65.472763 -6.474609 -44.892574 -17.454046 22.695313 4.462891 -79.950409 -20.735109 -11.852983 12.814593 27.108994 7.475557 0.703885 0.974496 -22.525492 -23.832911 -36.520851 -32.135773 -8.222317 51.613277 -2.753236 3.147935 15.363901 -8.390290 30.094366 
5.192203 51.576614 -11.223835 26.777342 6.503906 19.033203 0.000000 0.000000 0.000000 15.791017 7.187500 7.559815 44.042965 1.210938 -0.156250 -20.205078 7.041016 16.563700 -45.000000 30.000000 24.995117 -137.734390 -56.328125 15.849609 -68.828125 -23.896486 8.959035 -21.416014 -32.236328 -48.540363 23.242188 -10.898438 25.000000 44.052734 25.937500 62.728882 -1.308594 -43.134769 -0.146484 32.568359 4.472656 -79.833221 -25.862671 -12.264192 12.156552 25.038200 7.143713 0.742818 7.960884 -25.393085 -26.429049 -42.652069 -29.635145 -6.793756 52.346397 -4.237539 2.870802 17.626581 -10.289872 24.094984 
4.585776 52.362972 -11.630455 30.039063 3.173828 21.016165 0.000000 0.000000 0.000000 15.732422 6.259766 7.335050 32.382813 4.853516 0.185547 -24.619143 9.501953 17.880859 -45.000000 30.000000 24.995117 -127.236328 -59.707035 11.787108 -89.628906 -18.369141 24.358547 -10.820313 -35.029297 -55.630608 24.570313 -12.070312 25.000000 38.056644 28.369143 59.653084 8.994141 -46.933594 25.759089 34.687500 9.746094 -78.876953 -33.227612 -9.471834 11.750876 27.714567 6.713831 0.497898 13.158303 -25.722454 -27.612627 -47.301865 -25.877136 -5.048112 53.332317 -3.270875 3.180276 18.731310 -10.140751 21.720062 
3.641267 52.538090 -11.746868 29.794922 -2.099610 19.003904 0.000000 0.000000 0.000000 17.636721 6.044921 7.178763 23.974611 8.847656 0.548377 -30.800779 12.675781 18.097845 -45.000000 30.000000 24.995117 -104.375000 -59.638672 0.372434 -119.423820 -4.892579 62.129738 -13.691406 -21.337891 -55.999649 28.232422 -13.720702 25.000000 31.230469 32.070316 55.845032 26.914063 -52.519531 58.191341 35.283203 16.103516 -77.087135 -38.094330 -1.679858 12.850172 31.942858 6.506896 0.242568 14.517516 -23.273642 -26.385315 -49.272221 -17.713005 -2.096355 54.704983 -1.708892 3.677150 20.106155 -11.400778 24.995892 
3.622576 52.186375 -12.138785 31.826172 -3.662110 17.744141 0.000000 0.000000 0.000000 16.582031 3.203125 6.552672 20.878906 10.537109 0.704911 -33.066402 9.931642 13.995824 -45.000000 30.000000 24.995117 -77.949219 -59.765625 -12.861327 -136.015625 2.675781 92.685089 -14.960937 -15.224609 -54.582642 25.996094 -15.849609 25.000000 24.873047 36.093754 51.988174 42.177738 -54.414066 75.818489 33.046871 18.857422 -76.435547 -42.851475 -0.927484 12.095391 35.589233 6.672628 0.065858 10.928766 -19.183580 -24.429058 -55.238647 -16.112080 -1.190511 59.541649 -2.842304 3.892465 19.717552 -6.796254 23.368776 
3.742718 51.274860 -12.205616 30.419920 -4.384766 14.853515 0.000000 0.000000 0.000000 16.562502 1.250000 6.113494 27.148438 7.841796 0.450551 -32.412109 7.529296 9.628907 -45.000000 30.000000 24.995117 -60.585938 -53.486332 -20.330112 -132.607422 7.792969 88.408203 -6.972656 -11.064675 -58.635166 26.044922 -17.119141 25.000000 20.087891 38.837894 49.023438 48.515621 -56.240234 78.857422 30.576172 18.759768 -76.591797 -42.366402 1.082685 12.748475 38.348225 6.300131 -0.209835 5.795810 -15.183125 -23.399942 -57.629631 -13.631594 -0.274659 65.429916 -4.638831 4.063368 19.042376 -1.464451 22.694719 
3.943462 50.129589 -11.949934 26.669922 -3.681641 13.779297 0.000000 0.000000 0.000000 17.148436 -0.048828 5.781250 39.863277 2.119140 -0.058594 -27.587891 5.156250 4.151268 -45.000000 30.000000 24.995117 -59.677738 -51.025391 -20.390625 -117.656250 7.988281 77.792969 0.966797 -13.808593 -61.679688 25.917969 -18.281252 25.000000 19.980471 40.830078 48.199745 46.123047 -57.001953 70.603897 29.101564 14.433594 -77.780769 -37.729172 1.522117 13.756778 39.719994 6.025586 -0.316097 0.733080 -12.463630 -24.262566 -56.506645 -13.357939 -0.270128 71.425201 -6.913969 4.100886 18.316339 1.812141 21.497610 
4.094472 49.387234 -11.435796 23.750000 -1.660156 17.402060 0.000000 0.000000 0.000000 17.128906 -0.585938 5.664072 54.472656 -2.558594 -0.537545 -17.509768 1.552734 -1.083984 -45.000000 30.000000 24.995117 -79.130859 -55.087887 -12.031249 -98.505859 1.777344 72.988281 -4.042969 -14.365235 -60.820313 23.652344 -17.958984 25.000000 24.892580 40.478519 50.396965 33.535156 -56.699219 48.230816 29.296873 11.474609 -78.769897 -32.534958 -1.846251 13.755783 38.483360 6.797848 -0.061996 -1.195015 -13.784631 -25.309023 -53.440964 -17.995998 -1.927486 76.163254 -8.123479 4.257713 17.075523 1.422477 20.455912 
4.021380 49.446144 -10.839027 23.554686 -0.410156 24.248049 0.000000 0.000000 0.000000 15.927734 0.458984 5.966875 65.683594 -4.160156 -0.751953 -9.892578 -1.826172 -2.480780 -45.000000 30.000000 24.995117 -108.818359 -51.943359 1.757813 -81.855469 -2.373047 73.574623 -4.843750 -4.765625 -62.626953 21.289063 -14.619141 25.000000 30.302732 36.005863 54.238277 15.449219 -52.216793 16.962891 23.906248 6.572265 -79.882813 -30.062576 -6.015665 13.092412 36.002296 7.647775 0.247491 0.322516 -18.639479 -23.519001 -49.762272 -24.363373 -4.345101 78.747993 -6.454869 4.834713 14.573035 0.209070 19.783546 
3.653116 50.103271 -10.335788 24.482420 -0.771484 30.605473 0.000000 0.000000 0.000000 15.205078 3.046875 6.592316 69.345703 -5.078125 -0.859375 -9.716797 -2.773437 -1.123047 -45.000000 30.000000 24.995117 -120.224609 -39.697269 5.550404 -66.542969 2.177735 60.097282 7.539063 -7.607422 -66.065750 21.572264 -10.820312 25.000000 32.617188 30.478518 56.875004 2.451172 -45.986328 -11.650391 20.000002 -0.537109 -80.361404 -30.228067 -8.076051 12.578533 34.357891 7.879222 0.380651 3.460111 -24.009529 -19.876467 -46.353214 -27.516630 -5.727759 79.726120 -3.017663 5.646253 10.557043 1.025268 21.064272 
